<svg width="87" height="87" viewBox="0 0 87 87" fill="none" xmlns="http://www.w3.org/2000/svg">
<path d="M23.4252 46.1917L30.7043 47.9985C31.6695 48.2381 32.6904 48.0845 33.5424 47.5713C34.3944 47.0582 35.0076 46.2277 35.2472 45.2624C35.4868 44.2971 35.3332 43.2762 34.82 42.4242C34.3069 41.5723 33.4764 40.959 32.5111 40.7194L25.232 38.9126C24.2667 38.673 23.2458 38.8267 22.3938 39.3398C21.5419 39.8529 20.9286 40.6835 20.689 41.6487C20.4494 42.614 20.6031 43.6349 21.1162 44.4869C21.6293 45.3389 22.4599 45.9521 23.4252 46.1917ZM43.4556 58.8913L21.6183 53.4708C20.6531 53.2312 19.6321 53.3849 18.7802 53.898C17.9282 54.4111 17.315 55.2417 17.0754 56.2069C16.8358 57.1722 16.9894 58.1931 17.5025 59.0451C18.0157 59.8971 18.8462 60.5103 19.8115 60.7499L41.6488 66.1704C42.6141 66.41 43.635 66.2563 44.487 65.7432C45.3389 65.2301 45.9522 64.3995 46.1918 63.4343C46.4314 62.469 46.2777 61.4481 45.7646 60.5961C45.2515 59.7441 44.4209 59.1309 43.4556 58.8913ZM77.9408 13.358L26.987 0.710242C24.0912 -0.00855865 21.0285 0.452436 18.4725 1.99181C15.9166 3.53119 14.0769 6.02285 13.3581 8.91866L0.71032 59.8724C-0.0084819 62.7682 0.452513 65.831 1.99189 68.3869C3.53127 70.9428 6.02293 72.7825 8.91874 73.5013L59.8725 86.1491C62.7683 86.8679 65.831 86.4069 68.3869 84.8675C70.9429 83.3281 72.7826 80.8365 73.5014 77.9407L86.1492 26.9869C86.868 24.0911 86.407 21.0284 84.8676 18.4725C83.3282 15.9166 80.8366 14.0768 77.9408 13.358ZM57.9362 16.1201L54.9639 28.0942L50.2271 23.6728C49.7531 23.216 49.1672 22.8921 48.5283 22.7335C47.8895 22.5749 47.2201 22.5873 46.5875 22.7694L40.4057 24.4805L43.378 12.5064L57.9362 16.1201ZM66.2223 76.1338C65.9827 77.0991 65.3694 77.9297 64.5175 78.4428C63.6655 78.9559 62.6446 79.1096 61.6793 78.87L10.7256 66.2222C9.76029 65.9826 8.92974 65.3694 8.41661 64.5174C7.90349 63.6654 7.74983 62.6445 7.98943 61.6792L20.6372 10.7255C20.8768 9.76022 21.4901 8.92966 22.342 8.41654C23.194 7.90341 24.2149 7.74975 25.1802 7.98935L36.0988 10.6996L31.5818 28.8974C31.428 29.5335 31.4433 30.1987 31.6262 30.8271C31.8092 31.4554 32.1534 32.025 32.6246 32.4791C33.0986 32.9358 33.6845 33.2598 34.3234 33.4184C34.9622 33.577 35.6316 33.5646 36.2642 33.3825L46.6188 30.582L54.4893 37.945C54.9567 38.3883 55.5305 38.7037 56.1552 38.8608C57.1205 39.1004 58.1414 38.9467 58.9934 38.4336C59.8454 37.9205 60.4586 37.0899 60.6982 36.1247L65.2153 17.9269L76.1339 20.6371C77.0992 20.8767 77.9298 21.49 78.4429 22.342C78.956 23.1939 79.1097 24.2148 78.8701 25.1801L66.2223 76.1338Z" fill="#323232"/>
</svg>
