<svg width="18" height="18" viewBox="0 0 18 18" fill="none" xmlns="http://www.w3.org/2000/svg">
<path d="M17.7294 7.43036L9.61097 0.203262C9.25015 -0.0677541 8.79913 -0.0677541 8.43831 0.203262L0.319901 7.43036C-0.0409169 7.79172 -0.131122 8.33375 0.229697 8.69511C0.590515 9.05646 1.13174 9.1468 1.49256 8.78545L1.76317 8.42409V17.0966C1.76317 17.6386 2.12399 18 2.66522 18H15.2939C15.8351 18 16.1959 17.6386 16.1959 17.0966V8.42409L16.4665 8.69511C16.8273 9.05646 17.3686 8.96612 17.7294 8.60477C18.0902 8.33375 18.0902 7.70138 17.7294 7.43036ZM8.97954 8.06274C10.3326 8.06274 11.4151 9.1468 11.4151 10.5019C11.4151 11.857 10.3326 12.941 8.97954 12.941C7.62647 12.941 6.54402 11.857 6.54402 10.5019C6.54402 9.1468 7.62647 8.06274 8.97954 8.06274ZM4.46931 16.1932C4.46931 16.1029 4.46931 16.1029 4.55952 16.0125C6.54402 13.5734 10.1522 13.1217 12.5877 15.1092C12.9485 15.3802 13.2192 15.6512 13.4898 16.0125C13.4898 16.0125 13.4898 16.1029 13.58 16.1932H4.46931Z" fill="black"/>
</svg>
