<svg width="50" height="49" viewBox="0 0 50 49" fill="none" xmlns="http://www.w3.org/2000/svg">
<path d="M36.1946 2.36401L4.69856 33.352C3.49561 34.5292 2.54193 35.9294 1.89275 37.4717C1.24357 39.0139 0.911765 40.6675 0.916555 42.3368V45.7503C0.916555 46.4244 1.18873 47.0708 1.6732 47.5475C2.15767 48.0241 2.81475 48.2919 3.49989 48.2919H6.9693C8.66594 48.2966 10.3467 47.9702 11.9142 47.3315C13.4817 46.6928 14.9049 45.7545 16.1014 44.5709L47.5974 13.5829C49.1071 12.0939 49.9549 10.0766 49.9549 7.97347C49.9549 5.87031 49.1071 3.853 47.5974 2.36401C46.062 0.920078 44.0199 0.114258 41.896 0.114258C39.772 0.114258 37.7299 0.920078 36.1946 2.36401ZM43.9446 9.98901L12.4486 40.977C10.9919 42.4014 9.02307 43.2033 6.9693 43.2086H6.08322V42.3368C6.0886 40.3162 6.9036 38.3791 8.35139 36.9459L39.8474 5.95793C40.3992 5.43932 41.1329 5.14992 41.896 5.14992C42.6591 5.14992 43.3928 5.43932 43.9446 5.95793C44.4869 6.49299 44.7915 7.21781 44.7915 7.97347C44.7915 8.72913 44.4869 9.45395 43.9446 9.98901Z" fill="white"/>
</svg>
