<svg width="62" height="61" viewBox="0 0 62 61" fill="none" xmlns="http://www.w3.org/2000/svg">
<path d="M59.4167 22.8216C58.7315 22.8216 58.0744 23.0894 57.59 23.5661C57.1055 24.0427 56.8333 24.6892 56.8333 25.3633V38.125H46.5C44.4446 38.125 42.4733 38.9283 41.0199 40.3583C39.5665 41.7883 38.75 43.7277 38.75 45.75V55.9167H12.9167C10.8612 55.9167 8.89 55.1133 7.43659 53.6834C5.98318 52.2534 5.16667 50.3139 5.16667 48.2917V12.7083C5.16667 10.6861 5.98318 8.74661 7.43659 7.31664C8.89 5.88668 10.8612 5.08333 12.9167 5.08333H36.2752C36.9603 5.08333 37.6174 4.81555 38.1019 4.3389C38.5863 3.86224 38.8585 3.21576 38.8585 2.54167C38.8585 1.86757 38.5863 1.22109 38.1019 0.744437C37.6174 0.267782 36.9603 0 36.2752 0L12.9167 0C9.49221 0.0040358 6.20919 1.34424 3.78773 3.72664C1.36628 6.10904 0.00410197 9.33911 0 12.7083L0 48.2917C0.00410197 51.6609 1.36628 54.891 3.78773 57.2734C6.20919 59.6558 9.49221 60.996 12.9167 61H42.2194C43.9164 61.0048 45.5976 60.6784 47.1655 60.0396C48.7335 59.4009 50.1571 58.4626 51.3541 57.279L58.2154 50.5233C59.4186 49.3461 60.3726 47.946 61.0222 46.4037C61.6718 44.8615 62.0042 43.2079 62 41.5385V25.3633C62 24.6892 61.7278 24.0427 61.2434 23.5661C60.7589 23.0894 60.1018 22.8216 59.4167 22.8216ZM47.7013 53.6851C46.6628 54.7043 45.3496 55.4099 43.9167 55.7184V45.75C43.9167 45.0759 44.1888 44.4294 44.6733 43.9528C45.1578 43.4761 45.8149 43.2083 46.5 43.2083H56.6396C56.32 44.6152 55.6037 45.9049 54.5729 46.9293L47.7013 53.6851Z" fill="white"/>
</svg>
