<svg width="42" height="37" viewBox="0 0 42 37" fill="none" xmlns="http://www.w3.org/2000/svg">
<path d="M23.1 0C19.2013 5.68654e-08 15.4623 1.51597 12.7055 4.21441C9.94875 6.91285 8.4 10.5727 8.4 14.3889C8.4 18.2051 9.94875 21.8649 12.7055 24.5634C15.4623 27.2618 19.2013 28.7778 23.1 28.7778C25.8848 28.7778 28.5555 27.6949 30.5246 25.7675C32.4938 23.84 33.6 21.2258 33.6 18.5C33.6 15.7742 32.4938 13.16 30.5246 11.2325C28.5555 9.30506 25.8848 8.22222 23.1 8.22222C21.4291 8.22222 19.8267 8.87192 18.6452 10.0284C17.4637 11.1849 16.8 12.7534 16.8 14.3889C16.8 16.0244 17.4637 17.5929 18.6452 18.7494C19.8267 19.9059 21.4291 20.5556 23.1 20.5556C23.657 20.5556 24.1911 20.339 24.5849 19.9535C24.9787 19.568 25.2 19.0452 25.2 18.5C25.2 17.9548 24.9787 17.432 24.5849 17.0465C24.1911 16.661 23.657 16.4444 23.1 16.4444C22.543 16.4444 22.0089 16.2279 21.6151 15.8424C21.2212 15.4569 21 14.9341 21 14.3889C21 13.8437 21.2212 13.3209 21.6151 12.9354C22.0089 12.5499 22.543 12.3333 23.1 12.3333C24.7709 12.3333 26.3733 12.983 27.5548 14.1395C28.7363 15.296 29.4 16.8645 29.4 18.5C29.4 20.1355 28.7363 21.704 27.5548 22.8605C26.3733 24.017 24.7709 24.6667 23.1 24.6667C20.3152 24.6667 17.6445 23.5838 15.6754 21.6564C13.7062 19.7289 12.6 17.1147 12.6 14.3889C12.6 11.6631 13.7062 9.04886 15.6754 7.1214C17.6445 5.19395 20.3152 4.11111 23.1 4.11111C26.9987 4.11111 30.7377 5.62708 33.4945 8.32552C36.2513 11.024 37.8 14.6838 37.8 18.5C37.8 22.3162 36.2513 25.976 33.4945 28.6745C30.7377 31.3729 26.9987 32.8889 23.1 32.8889C18.0874 32.8889 13.2801 30.9398 9.73568 27.4704C6.19124 24.0009 4.2 19.2954 4.2 14.3889C4.2 13.8437 3.97875 13.3209 3.58492 12.9354C3.1911 12.5499 2.65695 12.3333 2.1 12.3333C1.54305 12.3333 1.0089 12.5499 0.615076 12.9354C0.221249 13.3209 0 13.8437 0 14.3889C0 20.3857 2.43374 26.137 6.76583 30.3774C11.0979 34.6178 16.9735 37 23.1 37C28.1126 37 32.9199 35.0509 36.4643 31.5815C40.0088 28.1121 42 23.4065 42 18.5C42 13.5935 40.0088 8.88795 36.4643 5.41852C32.9199 1.9491 28.1126 7.31126e-08 23.1 0V0Z" fill="#323232"/>
</svg>
