<svg width="36" height="30" viewBox="0 0 36 30" fill="none" xmlns="http://www.w3.org/2000/svg">
<path d="M30.5994 5.27863H28.2954L27.7194 3.5191C27.346 2.48666 26.6534 1.5933 25.7375 0.962784C24.8216 0.33227 23.7277 -0.00418222 22.6075 3.92439e-05H13.3917C12.2605 0.00210794 11.1586 0.351388 10.2414 0.998581C9.32416 1.64577 8.63804 2.5582 8.27983 3.60707L7.70384 5.3666H5.39989C3.96775 5.3666 2.59427 5.92274 1.58159 6.91266C0.568915 7.90259 0 9.24522 0 10.6452V24.7214C0 26.1214 0.568915 27.464 1.58159 28.4539C2.59427 29.4439 3.96775 30 5.39989 30H30.5994C32.0315 30 33.405 29.4439 34.4177 28.4539C35.4303 27.464 35.9992 26.1214 35.9993 24.7214V10.6452C36.0112 9.94463 35.8803 9.24875 35.6143 8.59813C35.3483 7.94752 34.9525 7.35518 34.4498 6.85566C33.9472 6.35614 33.3479 5.95944 32.6868 5.68868C32.0257 5.41792 31.3161 5.27853 30.5994 5.27863ZM32.3993 24.6334C32.3993 25.1001 32.2097 25.5476 31.8721 25.8776C31.5346 26.2076 31.0767 26.393 30.5994 26.393H5.39989C4.92251 26.393 4.46468 26.2076 4.12712 25.8776C3.78956 25.5476 3.59993 25.1001 3.59993 24.6334V10.5572C3.59993 10.0906 3.78956 9.64301 4.12712 9.31304C4.46468 8.98306 4.92251 8.79768 5.39989 8.79768H8.99981C9.39232 8.81771 9.78075 8.7116 10.1058 8.49555C10.4308 8.2795 10.6745 7.96539 10.7998 7.6012L11.7718 4.71558C11.8925 4.3661 12.1226 4.06255 12.4294 3.84785C12.7363 3.63315 13.1044 3.51814 13.4817 3.5191H22.6975C23.0749 3.51814 23.443 3.63315 23.7498 3.84785C24.0567 4.06255 24.2867 4.3661 24.4075 4.71558L25.3795 7.6012C25.495 7.93682 25.7114 8.23057 26.0004 8.44403C26.2894 8.6575 26.6376 8.78076 26.9994 8.79768H30.5994C31.0767 8.79768 31.5346 8.98306 31.8721 9.31304C32.2097 9.64301 32.3993 10.0906 32.3993 10.5572V24.6334ZM17.9996 8.79768C16.5756 8.79768 15.1836 9.21046 13.9996 9.98382C12.8156 10.7572 11.8928 11.8564 11.3478 13.1424C10.8029 14.4285 10.6603 15.8436 10.9381 17.2089C11.2159 18.5741 11.9016 19.8282 12.9086 20.8125C13.9155 21.7968 15.1984 22.4671 16.595 22.7387C17.9916 23.0102 19.4393 22.8709 20.7549 22.3382C22.0705 21.8055 23.195 20.9034 23.9861 19.746C24.7772 18.5885 25.1995 17.2278 25.1995 15.8358C25.1995 13.9692 24.4409 12.179 23.0907 10.8591C21.7405 9.5392 19.9091 8.79768 17.9996 8.79768ZM17.9996 19.3549C17.2876 19.3549 16.5916 19.1485 15.9996 18.7618C15.4076 18.3751 14.9462 17.8255 14.6737 17.1825C14.4013 16.5395 14.33 15.8319 14.4689 15.1493C14.6078 14.4666 14.9506 13.8396 15.4541 13.3474C15.9576 12.8553 16.599 12.5201 17.2973 12.3844C17.9956 12.2486 18.7195 12.3183 19.3773 12.5846C20.0351 12.851 20.5973 13.302 20.9929 13.8807C21.3884 14.4594 21.5996 15.1398 21.5996 15.8358C21.5996 16.7691 21.2203 17.6642 20.5452 18.3241C19.87 18.9841 18.9544 19.3549 17.9996 19.3549Z" fill="#565656"/>
</svg>
