<svg width="70" height="46" viewBox="0 0 70 46" fill="none" xmlns="http://www.w3.org/2000/svg">
<path d="M54.9121 0.802979H15.1566C11.3924 0.80743 7.78358 2.28582 5.12184 4.91387C2.46011 7.54191 0.962761 11.105 0.958252 14.8216L0.958252 31.644C0.962761 35.3606 2.46011 38.9238 5.12184 41.5518C7.78358 44.1798 11.3924 45.6582 15.1566 45.6627H54.9121C58.6764 45.6582 62.2852 44.1798 64.9469 41.5518C67.6086 38.9238 69.106 35.3606 69.1105 31.644V14.8216C69.106 11.105 67.6086 7.54191 64.9469 4.91387C62.2852 2.28582 58.6764 0.80743 54.9121 0.802979ZM12.317 37.2515C11.7553 37.2515 11.2063 37.0871 10.7393 36.779C10.2723 36.4709 9.90837 36.033 9.69344 35.5207C9.47851 35.0084 9.42228 34.4446 9.53185 33.9008C9.64141 33.3569 9.91187 32.8573 10.309 32.4652C10.7061 32.0731 11.2121 31.8061 11.763 31.6979C12.3138 31.5897 12.8848 31.6452 13.4037 31.8574C13.9225 32.0697 14.366 32.429 14.6781 32.8901C14.9901 33.3512 15.1566 33.8932 15.1566 34.4478C15.1566 35.1913 14.8575 35.9045 14.3249 36.4303C13.7924 36.9561 13.0701 37.2515 12.317 37.2515ZM12.317 14.8216C11.7553 14.8216 11.2063 14.6572 10.7393 14.3491C10.2723 14.041 9.90837 13.6032 9.69344 13.0908C9.47851 12.5785 9.42228 12.0148 9.53185 11.4709C9.64141 10.9271 9.91187 10.4275 10.309 10.0354C10.7061 9.64326 11.2121 9.37623 11.763 9.26804C12.3138 9.15986 12.8848 9.21539 13.4037 9.42759C13.9225 9.6398 14.366 9.99916 14.6781 10.4602C14.9901 10.9213 15.1566 11.4634 15.1566 12.0179C15.1566 12.7615 14.8575 13.4746 14.3249 14.0004C13.7924 14.5262 13.0701 14.8216 12.317 14.8216ZM35.0344 34.4478C32.7878 34.4478 30.5917 33.79 28.7238 32.5577C26.8559 31.3254 25.4 29.5739 24.5403 27.5246C23.6806 25.4753 23.4556 23.2204 23.8939 21.0449C24.3322 18.8694 25.414 16.8711 27.0026 15.3027C28.5911 13.7342 30.615 12.6661 32.8184 12.2334C35.0218 11.8007 37.3056 12.0228 39.3812 12.8716C41.4567 13.7204 43.2307 15.1579 44.4788 17.0022C45.7269 18.8464 46.3931 21.0147 46.3931 23.2328C46.3931 26.2072 45.1964 29.0598 43.0662 31.163C40.936 33.2662 38.0469 34.4478 35.0344 34.4478ZM57.7518 37.2515C57.1902 37.2515 56.6411 37.0871 56.1741 36.779C55.7072 36.4709 55.3432 36.033 55.1283 35.5207C54.9133 35.0084 54.8571 34.4446 54.9667 33.9008C55.0762 33.3569 55.3467 32.8573 55.7438 32.4652C56.141 32.0731 56.6469 31.8061 57.1978 31.6979C57.7486 31.5897 58.3196 31.6452 58.8385 31.8574C59.3574 32.0697 59.8009 32.429 60.1129 32.8901C60.4249 33.3512 60.5915 33.8932 60.5915 34.4478C60.5915 35.1913 60.2923 35.9045 59.7597 36.4303C59.2272 36.9561 58.5049 37.2515 57.7518 37.2515ZM57.7518 14.8216C57.1902 14.8216 56.6411 14.6572 56.1741 14.3491C55.7072 14.041 55.3432 13.6032 55.1283 13.0908C54.9133 12.5785 54.8571 12.0148 54.9667 11.4709C55.0762 10.9271 55.3467 10.4275 55.7438 10.0354C56.141 9.64326 56.6469 9.37623 57.1978 9.26804C57.7486 9.15986 58.3196 9.21539 58.8385 9.42759C59.3574 9.6398 59.8009 9.99916 60.1129 10.4602C60.4249 10.9213 60.5915 11.4634 60.5915 12.0179C60.5915 12.7615 60.2923 13.4746 59.7597 14.0004C59.2272 14.5262 58.5049 14.8216 57.7518 14.8216ZM40.7137 23.2328C40.7137 24.3419 40.3806 25.426 39.7566 26.3482C39.1325 27.2703 38.2455 27.989 37.2078 28.4134C36.17 28.8379 35.0281 28.9489 33.9264 28.7325C32.8247 28.5162 31.8127 27.9821 31.0185 27.1979C30.2242 26.4137 29.6833 25.4145 29.4641 24.3268C29.245 23.239 29.3575 22.1116 29.7873 21.0869C30.2172 20.0623 30.9451 19.1866 31.8791 18.5704C32.8131 17.9542 33.9111 17.6254 35.0344 17.6254C36.5406 17.6254 37.9852 18.2162 39.0503 19.2678C40.1154 20.3194 40.7137 21.7456 40.7137 23.2328Z" fill="black"/>
</svg>
