<svg width="32" height="32" viewBox="0 0 32 32" fill="none" xmlns="http://www.w3.org/2000/svg">
<path d="M27.1747 4.82532C25.7166 3.3157 23.9726 2.11159 22.0442 1.28322C20.1158 0.454856 18.0418 0.0188337 15.9431 0.000596775C13.8444 -0.0176402 11.7631 0.382273 9.82067 1.177C7.8782 1.97173 6.11345 3.14536 4.6294 4.6294C3.14536 6.11345 1.97173 7.8782 1.177 9.82067C0.382273 11.7631 -0.0176402 13.8444 0.000596775 15.9431C0.0188337 18.0418 0.454856 20.1158 1.28322 22.0442C2.11159 23.9726 3.3157 25.7166 4.82532 27.1747C6.28335 28.6843 8.02743 29.8884 9.9558 30.7168C11.8842 31.5451 13.9582 31.9812 16.0569 31.9994C18.1556 32.0176 20.2369 31.6177 22.1793 30.823C24.1218 30.0283 25.8865 28.8546 27.3706 27.3706C28.8546 25.8865 30.0283 24.1218 30.823 22.1793C31.6177 20.2369 32.0176 18.1556 31.9994 16.0569C31.9812 13.9582 31.5451 11.8842 30.7168 9.9558C29.8884 8.02743 28.6843 6.28335 27.1747 4.82532ZM25.847 8.09711H17.2012L20.9156 4.38275C22.8365 5.20229 24.529 6.47711 25.847 8.09711ZM11.2583 4.30373C13.1978 3.52742 15.2971 3.23449 17.3751 3.45021L11.2583 9.56705V4.30373ZM8.09711 6.153V14.7988L5.23627 11.9379L4.38275 11.0844C5.20229 9.1635 6.47711 7.47098 8.09711 6.153ZM4.30373 20.7417C3.52556 18.8027 3.23257 16.7029 3.45021 14.6249L9.56705 20.7417H4.30373ZM6.153 23.9029H14.7988L11.0844 27.6172C9.1635 26.7977 7.47098 25.5229 6.153 23.9029ZM20.7417 27.6963C18.8025 28.4738 16.7029 28.7668 14.6249 28.5498L20.7417 22.4329V27.6963ZM20.7417 17.9599L17.9599 20.7417H14.0243L11.2583 17.9599V14.0401L14.0401 11.2583H17.9599L20.7417 14.0401V17.9599ZM23.9029 25.8628V17.2012L27.6172 20.9156C26.7977 22.8365 25.5229 24.529 23.9029 25.847V25.8628ZM22.4329 11.2583H27.6963C28.4738 13.1975 28.7668 15.2971 28.5498 17.3751L22.4329 11.2583Z" fill="#323232"/>
</svg>
