<svg width="88" height="102" viewBox="0 0 88 102" fill="none" xmlns="http://www.w3.org/2000/svg">
<path d="M61.6074 18.0878L60.0842 18.6776C60.2847 16.2457 59.9354 13.7972 59.0626 11.5151C57.8938 8.45731 55.8429 5.81684 53.1737 3.93358C50.5046 2.05031 47.3394 1.01046 44.0857 0.947856C40.8319 0.885253 37.6385 1.80277 34.9164 3.58231C32.1944 5.36185 30.0683 7.92196 28.8118 10.9331C25.8552 9.55314 22.5595 9.09225 19.3488 9.60973C16.1381 10.1272 13.1594 11.5994 10.7961 13.8368C8.43284 16.0741 6.79317 18.9743 6.08815 22.164C5.38313 25.3536 5.64503 28.6868 6.84013 31.7344C7.7316 34.0093 9.12224 36.0546 10.9081 37.7174L9.38494 38.3071C5.92237 39.6477 3.13785 42.3184 1.64394 45.7316C0.150024 49.1448 0.0690865 53.021 1.41893 56.5074L4.812 65.271C5.26195 66.4332 6.15197 67.3702 7.28627 67.8759C8.42056 68.3817 9.70622 68.4148 10.8604 67.9679L15.2123 66.283L25.3915 92.5739C26.7413 96.0603 29.4114 98.8714 32.8143 100.389C36.2172 101.906 40.0741 102.005 43.5367 100.665L78.3517 87.1851C81.8142 85.8444 84.5987 83.1738 86.0927 79.7605C87.5866 76.3473 87.6675 72.4712 86.3177 68.9848L76.1384 42.6938L80.4903 41.0089C81.6445 40.562 82.5727 39.6718 83.0706 38.5341C83.5686 37.3963 83.5956 36.1043 83.1456 34.9421L79.7526 26.1785C78.4027 22.6921 75.7327 19.8811 72.3298 18.3638C68.9269 16.8465 65.0699 16.7472 61.6074 18.0878ZM53.1992 86.8461L40.1436 91.9009C38.9894 92.3478 37.7038 92.3147 36.5695 91.8089C35.4352 91.3032 34.5452 90.3662 34.0952 89.204L23.916 62.9131L41.3235 56.1733L53.1992 86.8461ZM37.9304 47.4097L11.8192 57.5193L10.1227 53.1375C9.67272 51.9754 9.6997 50.6833 10.1977 49.5456C10.6956 48.4078 11.6238 47.5176 12.778 47.0707L34.5373 38.6461L37.9304 47.4097ZM31.1443 29.8824L24.6165 32.4098C23.3254 32.9097 21.9141 33.0129 20.5609 32.7063C19.2078 32.3997 17.9737 31.6971 17.0146 30.6874C16.0555 29.6777 15.4146 28.4062 15.1728 27.0337C14.9311 25.6611 15.0993 24.2493 15.6564 22.9766C16.2134 21.7039 17.1342 20.6276 18.3023 19.8837C19.4703 19.1398 20.8333 18.7618 22.2187 18.7975C23.6041 18.8331 24.9498 19.2808 26.0855 20.084C27.2213 20.8872 28.0962 22.0097 28.5995 23.3097L31.1443 29.8824ZM37.3032 19.9398C36.7999 18.6398 36.6907 17.2208 36.9895 15.8622C37.2883 14.5036 37.9817 13.2665 38.9818 12.3072C39.982 11.3479 41.2442 10.7095 42.6086 10.4729C43.9731 10.2362 45.3786 10.4119 46.6474 10.9776C47.9162 11.5434 48.9914 12.4738 49.7369 13.6513C50.4824 14.8287 50.8648 16.2004 50.8358 17.5927C50.8067 18.985 50.3675 20.3354 49.5736 21.4733C48.7797 22.6111 47.6669 23.4853 46.3758 23.9851L39.848 26.5125L37.3032 19.9398ZM77.6139 72.3547C78.0639 73.5168 78.0369 74.8088 77.5389 75.9466C77.0409 77.0843 76.1128 77.9745 74.9586 78.4214L61.903 83.4762L50.0272 52.8035L67.4347 46.0637L77.6139 72.3547ZM72.7454 33.9302L46.6342 44.0398L43.2411 35.2762L65.0004 26.8515C66.1546 26.4046 67.4403 26.4377 68.5746 26.9435C69.7089 27.4492 70.5989 28.3862 71.0488 29.5484L72.7454 33.9302Z" fill="#323232"/>
</svg>
