<svg width="18" height="15" viewBox="0 0 18 15" fill="none" xmlns="http://www.w3.org/2000/svg">
<path d="M15.3 0H2.7C1.98392 0 1.29716 0.296316 0.790812 0.823762C0.284464 1.35121 0 2.06658 0 2.8125V12.1875C0 12.9334 0.284464 13.6488 0.790812 14.1762C1.29716 14.7037 1.98392 15 2.7 15H15.3C16.0161 15 16.7028 14.7037 17.2092 14.1762C17.7155 13.6488 18 12.9334 18 12.1875V2.8125C18 2.06658 17.7155 1.35121 17.2092 0.823762C16.7028 0.296316 16.0161 0 15.3 0ZM14.931 1.875L9.639 7.3875C9.55533 7.47537 9.45579 7.54511 9.34612 7.59271C9.23645 7.64031 9.11881 7.66481 9 7.66481C8.88119 7.66481 8.76355 7.64031 8.65388 7.59271C8.54421 7.54511 8.44467 7.47537 8.361 7.3875L3.069 1.875H14.931ZM16.2 12.1875C16.2 12.4361 16.1052 12.6746 15.9364 12.8504C15.7676 13.0262 15.5387 13.125 15.3 13.125H2.7C2.46131 13.125 2.23239 13.0262 2.0636 12.8504C1.89482 12.6746 1.8 12.4361 1.8 12.1875V3.19687L7.092 8.70938C7.59825 9.23606 8.2845 9.5319 9 9.5319C9.7155 9.5319 10.4017 9.23606 10.908 8.70938L16.2 3.19687V12.1875Z" fill="black"/>
</svg>
