<svg width="18" height="17" viewBox="0 0 18 17" fill="none" xmlns="http://www.w3.org/2000/svg">
<path d="M15.769 9.37707C15.5702 9.37707 15.3625 9.31718 15.1638 9.2744C14.7614 9.19041 14.3659 9.0789 13.9805 8.94074C13.5615 8.79635 13.1009 8.80385 12.6874 8.96179C12.2738 9.11974 11.9366 9.41697 11.7405 9.79629L11.5418 10.1813C10.662 9.71773 9.85361 9.14199 9.13916 8.47019C8.42991 7.79347 7.82207 7.02773 7.33268 6.19443L7.71204 5.95488C8.1125 5.76916 8.4263 5.44971 8.59305 5.058C8.7598 4.6663 8.76772 4.23002 8.61528 3.83312C8.47186 3.46731 8.35419 3.0929 8.26301 2.71236C8.21785 2.52414 8.18172 2.32736 8.15463 2.13058C8.04494 1.52795 7.7117 0.982219 7.21491 0.591659C6.71812 0.2011 6.09044 -0.00861865 5.4449 0.000271468H2.73517C2.3459 -0.00319054 1.96041 0.0728334 1.60495 0.223168C1.24949 0.373502 0.932397 0.594617 0.675262 0.87146C0.418127 1.1483 0.226986 1.47437 0.114852 1.82748C0.00271758 2.18058 -0.0277778 2.55242 0.0254418 2.91769C0.506634 6.5019 2.2348 9.83212 4.93696 12.3823C7.63912 14.9325 11.1613 16.5573 14.947 17H15.2902C15.9563 17.0009 16.5994 16.7695 17.0967 16.3498C17.3825 16.1077 17.6108 15.8109 17.7665 15.4791C17.9222 15.1473 18.0017 14.7879 18 14.4248V11.8582C17.9889 11.2639 17.7604 10.6917 17.3536 10.2392C16.9467 9.78669 16.3866 9.48198 15.769 9.37707ZM16.2206 14.5104C16.2204 14.6318 16.1929 14.7519 16.14 14.8625C16.087 14.9732 16.0098 15.0718 15.9135 15.152C15.8129 15.235 15.6949 15.297 15.5672 15.3338C15.4396 15.3707 15.3052 15.3816 15.1728 15.3659C11.7901 14.9551 8.64801 13.4892 6.2422 11.1996C3.8364 8.91002 2.30379 5.92694 1.88612 2.72091C1.87175 2.59559 1.88434 2.46881 1.92316 2.34823C1.96197 2.22765 2.02619 2.11577 2.11193 2.01936C2.19658 1.9281 2.30077 1.85496 2.41757 1.80481C2.53438 1.75465 2.66112 1.72863 2.78936 1.72848H5.49909C5.70914 1.72405 5.91424 1.78912 6.0791 1.91248C6.24396 2.03584 6.35827 2.20978 6.40233 2.40436C6.43846 2.63821 6.48363 2.86921 6.53782 3.09735C6.64216 3.54835 6.78103 3.99155 6.95331 4.42345L5.68877 4.97956C5.58065 5.02654 5.4834 5.0933 5.40259 5.17599C5.32178 5.25867 5.25901 5.35567 5.21789 5.4614C5.17676 5.56713 5.15809 5.67951 5.16295 5.79209C5.1678 5.90467 5.19609 6.01524 5.24618 6.11743C6.54613 8.75488 8.78441 10.875 11.5689 12.1063C11.7888 12.1918 12.0354 12.1918 12.2553 12.1063C12.368 12.0681 12.4715 12.0091 12.5599 11.9327C12.6483 11.8564 12.7198 11.7641 12.7702 11.6614L13.3302 10.4636C13.7972 10.6218 14.2737 10.7532 14.7573 10.8572C14.9982 10.9085 15.2421 10.9513 15.489 10.9855C15.6944 11.0272 15.878 11.1355 16.0083 11.2917C16.1385 11.4478 16.2072 11.6421 16.2025 11.841L16.2206 14.5104Z" fill="black"/>
</svg>
