<svg width="42" height="42" viewBox="0 0 42 42" fill="none" xmlns="http://www.w3.org/2000/svg">
<path d="M24.9561 14.9492L22.1297 16.4767L20.6021 13.6503C20.3995 13.2755 20.0564 12.9965 19.6481 12.8747C19.2398 12.7529 18.7999 12.7983 18.4251 13.0008L11.3589 16.8198C10.9841 17.0224 10.7051 17.3656 10.5833 17.7738C10.4615 18.1821 10.5069 18.622 10.7095 18.9968L14.5284 26.063C14.731 26.4378 15.0742 26.7168 15.4825 26.8386C15.8907 26.9604 16.3307 26.915 16.7055 26.7124L19.5319 25.1849L21.0595 28.0113C21.2621 28.3861 21.6053 28.6651 22.0135 28.7869C22.4218 28.9087 22.8617 28.8633 23.2365 28.6608L30.3027 24.8418C30.6775 24.6392 30.9565 24.296 31.0783 23.8878C31.2001 23.4795 31.1547 23.0396 30.9521 22.6648L27.1332 15.5986C26.9306 15.2238 26.5874 14.9448 26.1792 14.823C25.7709 14.7012 25.331 14.7466 24.9561 14.9492ZM17.2406 20.9452L18.0043 22.3584L16.5911 23.1222L14.2997 18.8825L18.5394 16.5911L19.3032 18.0043L17.89 18.7681C17.5152 18.9707 17.2362 19.3139 17.1144 19.7221C16.9926 20.1304 17.038 20.5703 17.2406 20.9452ZM27.3619 22.7791L23.1222 25.0705L20.8308 20.8308L25.0705 18.5394L27.3619 22.7791ZM38.3465 22.8317L28.7533 5.08156C29.0206 4.66239 29.187 4.18691 29.2393 3.69253C29.2917 3.19814 29.2287 2.69835 29.0551 2.23248C28.8816 1.7666 28.6023 1.34736 28.2392 1.00774C27.8761 0.668116 27.4392 0.41738 26.9628 0.275262C26.4864 0.133145 25.9835 0.103523 25.4937 0.188727C25.0039 0.27393 24.5406 0.471637 24.1402 0.766287C23.7398 1.06094 23.4132 1.44449 23.1861 1.88677C22.9591 2.32904 22.8378 2.81798 22.8318 3.31509L5.08157 12.9083C4.6624 12.641 4.18692 12.4746 3.69254 12.4223C3.19815 12.3699 2.69836 12.433 2.23249 12.6065C1.76661 12.78 1.34737 13.0593 1.00775 13.4224C0.668126 13.7855 0.41739 14.2224 0.275272 14.6988C0.133155 15.1752 0.103533 15.6781 0.188737 16.1679C0.273941 16.6577 0.471647 17.121 0.766297 17.5214C1.06095 17.9218 1.4445 18.2484 1.88678 18.4755C2.32905 18.7025 2.81799 18.8238 3.3151 18.8299L12.9084 36.58C12.641 36.9992 12.4746 37.4747 12.4223 37.9691C12.3699 38.4635 12.433 38.9632 12.6065 39.4291C12.7801 39.895 13.0594 40.3142 13.4224 40.6539C13.7855 40.9935 14.2224 41.2442 14.6988 41.3863C15.1752 41.5285 15.6781 41.5581 16.1679 41.4729C16.6577 41.3877 17.121 41.19 17.5214 40.8953C17.9219 40.6007 18.2484 40.2171 18.4755 39.7748C18.7025 39.3326 18.8238 38.8436 18.8299 38.3465L36.5801 28.7533C36.9992 29.0206 37.4747 29.187 37.9691 29.2393C38.4635 29.2917 38.9633 29.2286 39.4291 29.0551C39.895 28.8816 40.3142 28.6023 40.6539 28.2392C40.9935 27.8761 41.2442 27.4392 41.3863 26.9628C41.5285 26.4864 41.5581 25.9835 41.4729 25.4937C41.3877 25.0039 41.19 24.5406 40.8953 24.1402C40.6007 23.7398 40.2171 23.4132 39.7748 23.1861C39.3326 22.9591 38.8436 22.8378 38.3465 22.8317ZM35.5201 24.3593C35.2252 24.8299 35.0636 25.3716 35.0525 25.9268L17.3023 35.52C16.8317 35.2252 16.29 35.0636 15.7348 35.0525L6.14156 17.3023C6.43639 16.8317 6.598 16.29 6.60916 15.7348L24.3593 6.14155C24.8299 6.43638 25.3716 6.59799 25.9268 6.60915L35.5201 24.3593Z" fill="#323232"/>
</svg>
