<svg width="59" height="59" viewBox="0 0 59 59" fill="none" xmlns="http://www.w3.org/2000/svg">
<path d="M40.4546 31.5925C43.361 29.3184 45.4824 26.1998 46.5237 22.6708C47.565 19.1417 47.4744 15.3776 46.2645 11.9022C45.0546 8.42673 42.7855 5.41275 39.7729 3.27955C36.7604 1.14634 33.1542 0 29.456 0C25.7579 0 22.1517 1.14634 19.1391 3.27955C16.1266 5.41275 13.8575 8.42673 12.6476 11.9022C11.4376 15.3776 11.347 19.1417 12.3883 22.6708C13.4296 26.1998 15.551 29.3184 18.4575 31.5925C13.4772 33.5768 9.13181 36.868 5.88444 41.1153C2.63707 45.3625 0.6095 50.4065 0.0178818 55.7096C-0.0249426 56.0968 0.00933357 56.4885 0.118752 56.8625C0.228171 57.2365 0.41059 57.5855 0.655594 57.8893C1.1504 58.5031 1.87009 58.8962 2.65635 58.9822C3.4426 59.0682 4.231 58.8401 4.84812 58.348C5.46525 57.8559 5.86053 57.1402 5.94702 56.3582C6.59799 50.5949 9.36127 45.2721 13.7089 41.4068C18.0565 37.5415 23.6837 35.4047 29.5153 35.4047C35.3469 35.4047 40.9741 37.5415 45.3217 41.4068C49.6694 45.2721 52.4326 50.5949 53.0836 56.3582C53.1642 57.0827 53.5118 57.7518 54.0593 58.2363C54.6068 58.7209 55.3153 58.9866 56.0482 58.9822H56.3743C57.1514 58.8933 57.8617 58.5025 58.3504 57.895C58.839 57.2875 59.0665 56.5126 58.9831 55.7391C58.3887 50.4209 56.3502 45.364 53.0861 41.1102C49.8221 36.8565 45.4555 33.5663 40.4546 31.5925ZM29.456 29.4992C27.1107 29.4992 24.818 28.8075 22.8679 27.5117C20.9178 26.2158 19.3979 24.374 18.5004 22.2191C17.6029 20.0641 17.3681 17.6929 17.8256 15.4053C18.2832 13.1176 19.4126 11.0163 21.071 9.36695C22.7294 7.71764 24.8423 6.59445 27.1426 6.13941C29.4429 5.68436 31.8272 5.91791 33.994 6.81051C36.1608 7.70311 38.0128 9.21467 39.3158 11.1541C40.6188 13.0934 41.3143 15.3735 41.3143 17.706C41.3143 20.8338 40.0649 23.8334 37.8411 26.0451C35.6172 28.2567 32.601 29.4992 29.456 29.4992Z" fill="white"/>
</svg>
