<svg width="75" height="72" viewBox="0 0 75 72" fill="none" xmlns="http://www.w3.org/2000/svg">
<path d="M71.6107 15.6522C72.464 15.6522 73.2824 15.3224 73.8858 14.7353C74.4892 14.1482 74.8281 13.352 74.8281 12.5217V3.13043C74.8281 2.30019 74.4892 1.50395 73.8858 0.916883C73.2824 0.329813 72.464 0 71.6107 0H61.9586C61.1053 0 60.2869 0.329813 59.6835 0.916883C59.0801 1.50395 58.7412 2.30019 58.7412 3.13043C58.7412 3.54556 58.5717 3.94368 58.27 4.23721C57.9683 4.53075 57.5591 4.69565 57.1325 4.69565C56.7058 4.69565 56.2966 4.53075 55.9949 4.23721C55.6933 3.94368 55.5238 3.54556 55.5238 3.13043C55.5238 2.30019 55.1848 1.50395 54.5814 0.916883C53.9781 0.329813 53.1597 0 52.3064 0H42.6542C41.8009 0 40.9826 0.329813 40.3792 0.916883C39.7758 1.50395 39.4368 2.30019 39.4368 3.13043C39.4368 3.54556 39.2673 3.94368 38.9656 4.23721C38.664 4.53075 38.2548 4.69565 37.8281 4.69565C37.4015 4.69565 36.9923 4.53075 36.6906 4.23721C36.3889 3.94368 36.2194 3.54556 36.2194 3.13043C36.2194 2.30019 35.8805 1.50395 35.2771 0.916883C34.6737 0.329813 33.8553 0 33.002 0H23.3499C22.4966 0 21.6782 0.329813 21.0748 0.916883C20.4714 1.50395 20.1325 2.30019 20.1325 3.13043C20.1325 3.54556 19.963 3.94368 19.6613 4.23721C19.3596 4.53075 18.9504 4.69565 18.5238 4.69565C18.0971 4.69565 17.6879 4.53075 17.3863 4.23721C17.0846 3.94368 16.9151 3.54556 16.9151 3.13043C16.9151 2.30019 16.5761 1.50395 15.9727 0.916883C15.3694 0.329813 14.551 0 13.6977 0H4.04552C3.19221 0 2.37385 0.329813 1.77048 0.916883C1.1671 1.50395 0.828125 2.30019 0.828125 3.13043V12.5217C0.828125 13.352 1.1671 14.1482 1.77048 14.7353C2.37385 15.3224 3.19221 15.6522 4.04552 15.6522C4.47217 15.6522 4.88135 15.8171 5.18304 16.1106C5.48472 16.4042 5.65421 16.8023 5.65421 17.2174C5.65421 17.6325 5.48472 18.0306 5.18304 18.3242C4.88135 18.6177 4.47217 18.7826 4.04552 18.7826C3.19221 18.7826 2.37385 19.1124 1.77048 19.6995C1.1671 20.2866 0.828125 21.0828 0.828125 21.913V31.3043C0.828125 32.1346 1.1671 32.9308 1.77048 33.5179C2.37385 34.105 3.19221 34.4348 4.04552 34.4348C4.47217 34.4348 4.88135 34.5997 5.18304 34.8932C5.48472 35.1868 5.65421 35.5849 5.65421 36C5.65421 36.4151 5.48472 36.8132 5.18304 37.1068C4.88135 37.4003 4.47217 37.5652 4.04552 37.5652C3.19221 37.5652 2.37385 37.895 1.77048 38.4821C1.1671 39.0692 0.828125 39.8654 0.828125 40.6957V50.087C0.828125 50.9172 1.1671 51.7134 1.77048 52.3005C2.37385 52.8876 3.19221 53.2174 4.04552 53.2174C4.47217 53.2174 4.88135 53.3823 5.18304 53.6758C5.48472 53.9694 5.65421 54.3675 5.65421 54.7826C5.65421 55.1977 5.48472 55.5959 5.18304 55.8894C4.88135 56.1829 4.47217 56.3478 4.04552 56.3478C3.19221 56.3478 2.37385 56.6776 1.77048 57.2647C1.1671 57.8518 0.828125 58.648 0.828125 59.4783V68.8696C0.828125 69.6998 1.1671 70.4961 1.77048 71.0831C2.37385 71.6702 3.19221 72 4.04552 72H13.6977C14.551 72 15.3694 71.6702 15.9727 71.0831C16.5761 70.4961 16.9151 69.6998 16.9151 68.8696C16.9151 68.4544 17.0846 68.0563 17.3863 67.7628C17.6879 67.4693 18.0971 67.3043 18.5238 67.3043C18.9504 67.3043 19.3596 67.4693 19.6613 67.7628C19.963 68.0563 20.1325 68.4544 20.1325 68.8696C20.1325 69.6998 20.4714 70.4961 21.0748 71.0831C21.6782 71.6702 22.4966 72 23.3499 72H33.002C33.8553 72 34.6737 71.6702 35.2771 71.0831C35.8805 70.4961 36.2194 69.6998 36.2194 68.8696C36.2194 68.4544 36.3889 68.0563 36.6906 67.7628C36.9923 67.4693 37.4015 67.3043 37.8281 67.3043C38.2548 67.3043 38.664 67.4693 38.9656 67.7628C39.2673 68.0563 39.4368 68.4544 39.4368 68.8696C39.4368 69.6998 39.7758 70.4961 40.3792 71.0831C40.9826 71.6702 41.8009 72 42.6542 72H52.3064C53.1597 72 53.9781 71.6702 54.5814 71.0831C55.1848 70.4961 55.5238 69.6998 55.5238 68.8696C55.5238 68.4544 55.6933 68.0563 55.9949 67.7628C56.2966 67.4693 56.7058 67.3043 57.1325 67.3043C57.5591 67.3043 57.9683 67.4693 58.27 67.7628C58.5717 68.0563 58.7412 68.4544 58.7412 68.8696C58.7412 69.6998 59.0801 70.4961 59.6835 71.0831C60.2869 71.6702 61.1053 72 61.9586 72H71.6107C72.464 72 73.2824 71.6702 73.8858 71.0831C74.4892 70.4961 74.8281 69.6998 74.8281 68.8696V59.4783C74.8281 58.648 74.4892 57.8518 73.8858 57.2647C73.2824 56.6776 72.464 56.3478 71.6107 56.3478C71.1841 56.3478 70.7749 56.1829 70.4732 55.8894C70.1715 55.5959 70.002 55.1977 70.002 54.7826C70.002 54.3675 70.1715 53.9694 70.4732 53.6758C70.7749 53.3823 71.1841 53.2174 71.6107 53.2174C72.464 53.2174 73.2824 52.8876 73.8858 52.3005C74.4892 51.7134 74.8281 50.9172 74.8281 50.087V40.6957C74.8281 39.8654 74.4892 39.0692 73.8858 38.4821C73.2824 37.895 72.464 37.5652 71.6107 37.5652C71.1841 37.5652 70.7749 37.4003 70.4732 37.1068C70.1715 36.8132 70.002 36.4151 70.002 36C70.002 35.5849 70.1715 35.1868 70.4732 34.8932C70.7749 34.5997 71.1841 34.4348 71.6107 34.4348C72.464 34.4348 73.2824 34.105 73.8858 33.5179C74.4892 32.9308 74.8281 32.1346 74.8281 31.3043V21.913C74.8281 21.0828 74.4892 20.2866 73.8858 19.6995C73.2824 19.1124 72.464 18.7826 71.6107 18.7826C71.1841 18.7826 70.7749 18.6177 70.4732 18.3242C70.1715 18.0306 70.002 17.6325 70.002 17.2174C70.002 16.8023 70.1715 16.4042 70.4732 16.1106C70.7749 15.8171 71.1841 15.6522 71.6107 15.6522ZM68.3933 10.0487C66.9613 10.6589 65.7431 11.6619 64.8877 12.9351C64.0323 14.2082 63.5767 15.6963 63.5767 17.2174C63.5767 18.7385 64.0323 20.2266 64.8877 21.4997C65.7431 22.7729 66.9613 23.7759 68.3933 24.3861V28.8313C66.9613 29.4415 65.7431 30.4445 64.8877 31.7177C64.0323 32.9908 63.5767 34.4789 63.5767 36C63.5767 37.5211 64.0323 39.0092 64.8877 40.2823C65.7431 41.5555 66.9613 42.5585 68.3933 43.1687V47.6139C66.9613 48.2241 65.7431 49.2271 64.8877 50.5003C64.0323 51.7734 63.5767 53.2615 63.5767 54.7826C63.5767 56.3037 64.0323 57.7918 64.8877 59.0649C65.7431 60.3381 66.9613 61.3411 68.3933 61.9513V65.7391H64.5003C63.8731 64.3458 62.8423 63.1606 61.5337 62.3283C60.2252 61.496 58.6958 61.0527 57.1325 61.0527C55.5692 61.0527 54.0397 61.496 52.7312 62.3283C51.4227 63.1606 50.3918 64.3458 49.7646 65.7391H45.1959C44.5688 64.3458 43.5379 63.1606 42.2294 62.3283C40.9209 61.496 39.3914 61.0527 37.8281 61.0527C36.2648 61.0527 34.7354 61.496 33.4269 62.3283C32.1183 63.1606 31.0875 64.3458 30.4603 65.7391H25.8916C25.2644 64.3458 24.2336 63.1606 22.925 62.3283C21.6165 61.496 20.0871 61.0527 18.5238 61.0527C16.9605 61.0527 15.431 61.496 14.1225 62.3283C12.814 63.1606 11.7831 64.3458 11.156 65.7391H7.26291V61.9513C8.69491 61.3411 9.91311 60.3381 10.7685 59.0649C11.6239 57.7918 12.0795 56.3037 12.0795 54.7826C12.0795 53.2615 11.6239 51.7734 10.7685 50.5003C9.91311 49.2271 8.69491 48.2241 7.26291 47.6139V43.1687C8.69491 42.5585 9.91311 41.5555 10.7685 40.2823C11.6239 39.0092 12.0795 37.5211 12.0795 36C12.0795 34.4789 11.6239 32.9908 10.7685 31.7177C9.91311 30.4445 8.69491 29.4415 7.26291 28.8313V24.3861C8.69491 23.7759 9.91311 22.7729 10.7685 21.4997C11.6239 20.2266 12.0795 18.7385 12.0795 17.2174C12.0795 15.6963 11.6239 14.2082 10.7685 12.9351C9.91311 11.6619 8.69491 10.6589 7.26291 10.0487V6.26087H11.156C11.7831 7.65416 12.814 8.83944 14.1225 9.67174C15.431 10.504 16.9605 10.9473 18.5238 10.9473C20.0871 10.9473 21.6165 10.504 22.925 9.67174C24.2336 8.83944 25.2644 7.65416 25.8916 6.26087H30.4603C31.0875 7.65416 32.1183 8.83944 33.4269 9.67174C34.7354 10.504 36.2648 10.9473 37.8281 10.9473C39.3914 10.9473 40.9209 10.504 42.2294 9.67174C43.5379 8.83944 44.5688 7.65416 45.1959 6.26087H49.7646C50.3918 7.65416 51.4227 8.83944 52.7312 9.67174C54.0397 10.504 55.5692 10.9473 57.1325 10.9473C58.6958 10.9473 60.2252 10.504 61.5337 9.67174C62.8423 8.83944 63.8731 7.65416 64.5003 6.26087H68.3933V10.0487ZM37.8281 14.087C31.855 14.087 26.1265 16.3956 21.9028 20.5051C17.6792 24.6146 15.3064 30.1883 15.3064 36C15.3064 41.8117 17.6792 47.3854 21.9028 51.4949C26.1265 55.6044 31.855 57.913 37.8281 57.913C41.7836 57.9214 45.6701 56.9058 49.089 54.9704C49.4735 54.7747 49.8133 54.5054 50.0881 54.1786C50.3628 53.8518 50.5667 53.4743 50.6876 53.0688C50.8085 52.6633 50.8439 52.2382 50.7916 51.8191C50.7392 51.4 50.6003 50.9955 50.3832 50.63C50.166 50.2645 49.8751 49.9455 49.528 49.6922C49.1808 49.4389 48.7846 49.2565 48.3631 49.1561C47.9416 49.0556 47.5036 49.0392 47.0755 49.1077C46.6473 49.1762 46.2378 49.3283 45.8716 49.5548C42.8047 51.2776 39.2393 51.9676 35.7283 51.5179C32.2173 51.0681 28.9569 49.5037 26.4529 47.0673C23.9488 44.6309 22.341 41.4586 21.8788 38.0425C21.4166 34.6264 22.1258 31.1573 23.8965 28.1733C25.6672 25.1894 28.4004 22.8573 31.6721 21.5388C34.9439 20.2203 38.5714 19.989 41.992 20.8808C45.4127 21.7727 48.4352 23.7378 50.591 26.4714C52.7467 29.2051 53.9152 32.5544 53.9151 36V37.5652C53.9151 37.9064 53.846 38.2443 53.7118 38.5595C53.5776 38.8748 53.3809 39.1612 53.1329 39.4025C52.885 39.6437 52.5906 39.8351 52.2666 39.9657C51.9426 40.0963 51.5953 40.1635 51.2446 40.1635C50.5334 40.1635 49.8508 39.8908 49.3449 39.4044C48.839 38.918 48.5505 38.2572 48.542 37.5652V28.7061C48.5253 28.0646 48.3064 27.4437 47.9149 26.9273C47.5234 26.4109 46.9783 26.024 46.3534 25.8191C45.7284 25.6141 45.0539 25.601 44.421 25.7814C43.7881 25.9618 43.2275 26.3271 42.8151 26.8278C41.2861 26.0124 39.5717 25.582 37.8281 25.5757C34.9866 25.5757 32.2615 26.6739 30.2522 28.6289C28.243 30.5838 27.1142 33.2353 27.1142 36C27.1142 38.7647 28.243 41.4162 30.2522 43.3711C32.2615 45.3261 34.9866 46.4243 37.8281 46.4243C40.399 46.4247 42.8817 45.5119 44.8099 43.8574C46.0891 45.0799 47.7097 45.9093 49.4699 46.2421C51.23 46.5748 53.0519 46.3964 54.7086 45.7289C56.3653 45.0615 57.7835 43.9345 58.7866 42.4884C59.7897 41.0424 60.3334 39.3411 60.3499 37.5965V36C60.3499 30.1883 57.977 24.6146 53.7534 20.5051C49.5298 16.3956 43.8013 14.087 37.8281 14.087ZM37.8281 40.1635C36.9818 40.1635 36.1545 39.9193 35.4508 39.4618C34.7471 39.0043 34.1986 38.3541 33.8747 37.5933C33.5508 36.8325 33.4661 35.9954 33.6312 35.1877C33.7963 34.3801 34.2039 33.6382 34.8023 33.056C35.4008 32.4737 36.1632 32.0772 36.9933 31.9165C37.8234 31.7559 38.6838 31.8383 39.4657 32.1534C40.2476 32.4686 40.9159 33.0022 41.3861 33.6869C41.8563 34.3716 42.1073 35.1765 42.1073 36C42.1115 36.5479 42.0038 37.0912 41.7902 37.5982C41.5767 38.1052 41.2617 38.5659 40.8635 38.9533C40.4653 39.3408 39.9918 39.6473 39.4707 39.855C38.9496 40.0628 38.3913 40.1676 37.8281 40.1635Z" fill="white"/>
</svg>
