<svg width="53" height="53" viewBox="0 0 53 53" fill="none" xmlns="http://www.w3.org/2000/svg">
<path d="M21.8864 27.85L6.77464 24.26C6.20208 24.124 5.59894 24.221 5.0979 24.5296C4.59686 24.8383 4.23897 25.3334 4.10295 25.9059L0.512896 41.0177C0.376875 41.5903 0.473873 42.1934 0.782552 42.6945C1.09123 43.1955 1.5863 43.5534 2.15886 43.6894L17.2707 47.2795C17.8432 47.4155 18.4464 47.3185 18.9474 47.0098C19.4484 46.7011 19.8063 46.2061 19.9423 45.6335L23.5324 30.5217C23.6684 29.9492 23.5714 29.346 23.2627 28.845C22.9541 28.3439 22.459 27.986 21.8864 27.85ZM16.1376 42.449L5.34342 39.8846L7.90774 29.0905L18.7019 31.6548L16.1376 42.449ZM51.2751 9.74443L36.1633 6.15438C35.5907 6.01836 34.9876 6.11535 34.4865 6.42403C33.9855 6.73271 33.6276 7.22778 33.4916 7.80034L29.9015 22.9121C29.7655 23.4847 29.8625 24.0878 30.1712 24.5889C30.4799 25.0899 30.9749 25.4478 31.5475 25.5838L46.6593 29.1739C47.2318 29.3099 47.835 29.2129 48.336 28.9042C48.8371 28.5955 49.195 28.1005 49.331 27.5279L52.921 12.4161C53.057 11.8436 52.96 11.2404 52.6514 10.7394C52.3427 10.2383 51.8476 9.88045 51.2751 9.74443ZM45.5262 24.3434L34.732 21.779L37.2964 10.9849L48.0905 13.5492L45.5262 24.3434ZM45.6335 33.4915L30.5218 29.9015C29.9492 29.7655 29.3461 29.8625 28.845 30.1711C28.344 30.4798 27.9861 30.9749 27.8501 31.5474L24.26 46.6592C24.124 47.2318 24.221 47.8349 24.5297 48.336C24.8383 48.837 25.3334 49.1949 25.906 49.3309L41.0178 52.921C41.5903 53.057 42.1935 52.96 42.6945 52.6513C43.1955 52.3427 43.5534 51.8476 43.6895 51.275L47.2795 36.1632C47.4155 35.5907 47.3185 34.9875 47.0099 34.4865C46.7012 33.9855 46.2061 33.6276 45.6335 33.4915ZM39.8847 48.0905L29.0905 45.5261L31.6548 34.732L42.449 37.2963L39.8847 48.0905ZM27.5279 4.10292L12.4162 0.512865C11.8436 0.376844 11.2405 0.473843 10.7394 0.782521C10.2384 1.0912 9.88048 1.58627 9.74446 2.15883L6.15441 17.2706C6.01839 17.8432 6.11539 18.4463 6.42406 18.9474C6.73274 19.4484 7.22781 19.8063 7.80037 19.9423L22.9122 23.5324C23.4847 23.6684 24.0879 23.5714 24.5889 23.2627C25.0899 22.954 25.4478 22.459 25.5839 21.8864L29.1739 6.77461C29.3099 6.20205 29.2129 5.59891 28.9043 5.09787C28.5956 4.59683 28.1005 4.23894 27.5279 4.10292ZM21.7791 18.7018L10.9849 16.1375L13.5493 5.34339L24.3434 7.90771L21.7791 18.7018Z" fill="#323232"/>
</svg>
