<svg width="37" height="35" viewBox="0 0 37 35" fill="none" xmlns="http://www.w3.org/2000/svg">
<path d="M29.4546 31.5925C32.3611 29.3184 34.4825 26.1998 35.5238 22.6708C36.5651 19.1417 36.4745 15.3776 35.2646 11.9022C34.0546 8.42673 31.7855 5.41275 28.773 3.27955C25.7605 1.14634 22.1543 0 18.4561 0C14.758 0 11.1518 1.14634 8.1392 3.27955C5.12666 5.41275 2.85757 8.42673 1.64764 11.9022C0.437704 15.3776 0.347084 19.1417 1.38838 22.6708C2.42968 26.1998 4.55112 29.3184 7.45756 31.5925C9.8005 33.2168 14.557 35.258 20 34.9063L18.4561 29.4992C16.1108 29.4992 13.8181 28.8075 11.868 27.5117C9.91792 26.2158 8.39802 24.374 7.50049 22.2191C6.60297 20.0641 6.36814 17.6929 6.82569 15.4053C7.28324 13.1176 8.41263 11.0163 10.071 9.36695C11.7295 7.71764 13.8424 6.59445 16.1427 6.13941C18.4429 5.68436 20.8273 5.91791 22.9941 6.81051C25.1609 7.70311 27.0129 9.21467 28.3159 11.1541C29.6189 13.0934 30.3144 15.3735 30.3144 17.706C30.3144 20.8338 29.065 23.8334 26.8412 26.0451C24.6173 28.2567 21.6011 29.4992 18.4561 29.4992L20 34.9063C23.0378 34.71 26.2895 33.7682 29.4546 31.5925Z" fill="white"/>
</svg>
