<svg width="49" height="73" viewBox="0 0 49 73" fill="none" xmlns="http://www.w3.org/2000/svg">
<path d="M22.1883 73.0002C21.1918 72.9966 20.2079 72.7766 19.3048 72.3553C17.8296 71.6984 16.6449 70.5257 15.9728 69.0574C15.3008 67.589 15.1877 65.9259 15.6548 64.3801L20.4028 48.6668H9.2156C7.79028 48.6685 6.38438 48.3363 5.11058 47.6969C3.83677 47.0574 2.73047 46.1284 1.88036 44.9844C1.03024 43.8403 0.459937 42.5131 0.21516 41.1089C-0.029617 39.7048 0.0579354 38.2628 0.470803 36.8986L9.6688 6.48194C10.2295 4.60061 11.3852 2.95186 12.9625 1.78315C14.5398 0.614433 16.4536 -0.0111983 18.4166 0.000151747H29.6495C30.9263 0.00121981 32.1838 0.311393 33.3146 0.904165C34.4454 1.49694 35.4159 2.35468 36.1431 3.40409C36.8703 4.45351 37.3326 5.66338 37.4905 6.93033C37.6484 8.19728 37.4972 9.48363 37.0499 10.6794L31.9308 24.3335H39.7083C41.3662 24.3334 42.9928 24.7849 44.4133 25.6396C45.8339 26.4943 46.9948 27.7199 47.7713 29.1847C48.5478 30.6495 48.9105 32.2981 48.8206 33.9535C48.7306 35.609 48.1914 37.2086 47.2608 38.5807L27.7941 69.9098C27.1923 70.8523 26.3639 71.6289 25.3847 72.1688C24.4054 72.7086 23.3065 72.9944 22.1883 73.0002ZM18.4166 6.08349C17.7634 6.08285 17.1274 6.29251 16.6026 6.68145C16.0778 7.07039 15.6921 7.61793 15.5027 8.24307L6.30472 38.6597C6.16701 39.1142 6.13762 39.5946 6.2189 40.0625C6.30019 40.5303 6.4899 40.9727 6.77283 41.3541C7.05577 41.7355 7.42407 42.0453 7.84826 42.2588C8.27244 42.4723 8.74072 42.5835 9.2156 42.5835H24.5C24.9748 42.5835 25.4431 42.6947 25.8673 42.9082C26.2915 43.1217 26.6598 43.4315 26.9427 43.8129C27.2257 44.1943 27.4154 44.6366 27.4967 45.1045C27.5779 45.5724 27.5486 46.0528 27.4108 46.5072L21.4887 66.1017C21.4613 66.1738 21.4492 66.2508 21.4532 66.3278C21.4571 66.4048 21.477 66.4801 21.5116 66.5491C21.5462 66.618 21.5948 66.679 21.6542 66.7281C21.7136 66.7773 21.7826 66.8136 21.8568 66.8347C21.924 66.8778 21.9995 66.9063 22.0785 66.9185C22.1574 66.9306 22.238 66.9261 22.3151 66.9052C22.3922 66.8842 22.464 66.8474 22.526 66.797C22.588 66.7466 22.6387 66.6838 22.675 66.6127L42.1416 35.2835C42.482 34.8218 42.685 34.2732 42.7269 33.7011C42.7689 33.129 42.6483 32.5567 42.3789 32.0502C42.1293 31.5568 41.7472 31.1427 41.2756 30.8543C40.8039 30.5658 40.2612 30.4143 39.7083 30.4168H27.5416C27.05 30.4171 26.5657 30.2983 26.1301 30.0704C25.6944 29.8426 25.3205 29.5126 25.0404 29.1086C24.7602 28.7047 24.5821 28.2388 24.5214 27.751C24.4606 27.2631 24.519 26.7679 24.6916 26.3075L31.3528 8.54419C31.4552 8.26879 31.4895 7.97275 31.4529 7.68123C31.4164 7.38971 31.3099 7.11133 31.1427 6.86976C30.9755 6.62818 30.7524 6.43055 30.4925 6.29366C30.2325 6.15677 29.9433 6.08467 29.6495 6.08349H18.4166Z" fill="white"/>
</svg>
