<svg width="88" height="61" viewBox="0 0 88 61" fill="none" xmlns="http://www.w3.org/2000/svg">
<path d="M74.6061 0H13.7061C10.2451 0 6.92573 1.20502 4.47838 3.34997C2.03104 5.49491 0.656128 8.40409 0.656128 11.4375V49.5625C0.656128 52.5959 2.03104 55.5051 4.47838 57.65C6.92573 59.795 10.2451 61 13.7061 61H74.6061C78.0672 61 81.3865 59.795 83.8339 57.65C86.2812 55.5051 87.6561 52.5959 87.6561 49.5625V11.4375C87.6561 8.40409 86.2812 5.49491 83.8339 3.34997C81.3865 1.20502 78.0672 0 74.6061 0ZM72.8226 7.625L47.2446 30.0425C46.8402 30.3998 46.3591 30.6835 45.829 30.877C45.2989 31.0706 44.7304 31.1702 44.1561 31.1702C43.5819 31.1702 43.0133 31.0706 42.4832 30.877C41.9531 30.6835 41.472 30.3998 41.0676 30.0425L15.4896 7.625H72.8226ZM78.9561 49.5625C78.9561 50.5736 78.4978 51.5434 77.682 52.2583C76.8663 52.9733 75.7598 53.375 74.6061 53.375H13.7061C12.5524 53.375 11.446 52.9733 10.6302 52.2583C9.81443 51.5434 9.35613 50.5736 9.35613 49.5625V13.0006L34.9341 35.4181C37.381 37.56 40.6979 38.7631 44.1561 38.7631C47.6144 38.7631 50.9312 37.56 53.3781 35.4181L78.9561 13.0006V49.5625Z" fill="white"/>
</svg>
