<svg width="74" height="75" viewBox="0 0 74 75" fill="none" xmlns="http://www.w3.org/2000/svg">
<path d="M37.5552 0.0238304C32.6711 -0.153245 27.8015 0.657976 23.2395 2.40869C18.6775 4.15941 14.5173 6.81343 11.0092 10.2111C7.50107 13.6088 4.71754 17.6799 2.82605 22.1795C0.934565 26.6792 -0.0257946 31.5144 0.00274728 36.3942C-0.0601901 41.4604 0.958905 46.4819 2.99213 51.1241C5.02536 55.7662 8.02604 59.9224 11.7942 63.3158C12.0934 63.5818 12.337 63.9043 12.511 64.2646C12.685 64.625 12.786 65.0161 12.8081 65.4155V72.0896C12.8287 72.5816 12.9688 73.0613 13.2163 73.4872C13.4639 73.9131 13.8114 74.2725 14.229 74.5345C14.6466 74.7965 15.1217 74.9532 15.6134 74.991C16.1051 75.0289 16.5987 74.9468 17.0516 74.7518L24.5621 71.4897C25.2034 71.2479 25.911 71.2479 26.5524 71.4897C30.1027 72.4465 33.7652 72.9257 37.4426 72.9145C47.1233 72.9295 56.4134 69.104 63.2692 62.2797C70.1251 55.4554 73.985 46.1913 74 36.5254C74.0149 26.8595 70.1836 17.5836 63.3489 10.7382C56.5142 3.89282 47.2359 0.0387469 37.5552 0.0238304ZM60.0868 27.9953L49.0839 45.468C48.6689 46.1259 48.1218 46.6907 47.4772 47.1268C46.8326 47.5629 46.1045 47.8608 45.3387 48.0017C44.573 48.1426 43.7863 48.1235 43.0283 47.9456C42.2704 47.7676 41.5576 47.4347 40.935 46.9678L32.1477 40.4062C31.7577 40.1141 31.2833 39.9562 30.7958 39.9562C30.3083 39.9562 29.8339 40.1141 29.4439 40.4062L17.5773 49.405C17.2468 49.6595 16.8367 49.7888 16.4198 49.77C16.0029 49.7512 15.6061 49.5855 15.2999 49.3023C14.9938 49.0191 14.7981 48.6367 14.7475 48.2231C14.6969 47.8094 14.7948 47.3913 15.0237 47.0428L26.0266 29.5701C26.4416 28.9122 26.9887 28.3474 27.6333 27.9113C28.2779 27.4753 29.006 27.1773 29.7718 27.0364C30.5375 26.8955 31.3242 26.9146 32.0822 27.0925C32.8401 27.2705 33.5529 27.6034 34.1755 28.0703L42.9628 34.6319C43.3528 34.924 43.8272 35.0819 44.3147 35.0819C44.8022 35.0819 45.2766 34.924 45.6666 34.6319L57.5332 25.6331C57.8637 25.3786 58.2738 25.2493 58.6907 25.2681C59.1076 25.2869 59.5044 25.4526 59.8106 25.7358C60.1167 26.019 60.3125 26.4014 60.363 26.815C60.4136 27.2287 60.3157 27.6468 60.0868 27.9953Z" fill="white"/>
</svg>
