<svg width="65" height="67" viewBox="0 0 65 67" fill="none" xmlns="http://www.w3.org/2000/svg">
<path d="M62.7947 27.5189L54.6252 22.5489L56.2883 19.8151C58.0527 16.9148 58.5972 13.4352 57.802 10.1417C57.0068 6.84819 54.9371 4.01057 52.0481 2.2531C49.1592 0.495631 45.6877 -0.0377349 42.3973 0.770338C39.107 1.57841 36.2672 3.66173 34.5029 6.56199L32.8397 9.29585L24.6702 4.32593C23.948 3.88656 23.0801 3.75322 22.2575 3.95524C21.4349 4.15726 20.725 4.67809 20.2839 5.40315L1.98941 35.4756C0.666138 37.6508 0.257781 40.2605 0.854172 42.7306C1.45056 45.2008 3.00285 47.329 5.16955 48.6471L32.4013 65.2135C34.568 66.5316 37.1717 66.9316 39.6394 66.3255C42.1072 65.7195 44.237 64.157 45.5603 61.9818L63.8548 31.9094C64.2959 31.1843 64.432 30.3144 64.2332 29.491C64.0344 28.6676 63.517 27.9582 62.7947 27.5189ZM39.9492 9.87526C40.8314 8.42513 42.2513 7.38347 43.8965 6.97944C45.5417 6.5754 47.2774 6.84208 48.7219 7.72082C50.1663 8.59956 51.2012 10.0184 51.5988 11.6651C51.9964 13.3119 51.7241 15.0517 50.842 16.5018L49.1788 19.2357L38.2861 12.6091L39.9492 9.87526ZM40.1139 58.6685C39.6728 59.3936 38.9629 59.9144 38.1403 60.1164C37.3177 60.3185 36.4498 60.1851 35.7276 59.7458L8.49582 43.1794C7.77358 42.74 7.25615 42.0306 7.05736 41.2072C6.85856 40.3838 6.99468 39.5139 7.43577 38.7889L24.0671 11.4503L29.5135 14.7636L27.8503 17.4974C27.4092 18.2225 27.2731 19.0924 27.4719 19.9158C27.6707 20.7391 28.1882 21.4486 28.9104 21.8879C29.6326 22.3273 30.5005 22.4606 31.3231 22.2586C32.1457 22.0566 32.8556 21.5358 33.2967 20.8107L34.9598 18.0768L45.8526 24.7034L44.1894 27.4372C43.7483 28.1623 43.6122 29.0322 43.811 29.8556C44.0098 30.679 44.5272 31.3884 45.2495 31.8277C45.9717 32.2671 46.8396 32.4005 47.6622 32.1984C48.4848 31.9964 49.1947 31.4756 49.6358 30.7505L51.2989 28.0167L56.7453 31.3299L40.1139 58.6685Z" fill="#323232"/>
</svg>
